<?xml version="1.0" encoding="UTF-8"?>
<svg width="208.23" height="15.67" data-name="Layer 1" version="1.1" viewBox="0 0 208.22999 15.670001"
     xmlns="http://www.w3.org/2000/svg" xmlns:cc="http://creativecommons.org/ns#"
     xmlns:dc="http://purl.org/dc/elements/1.1/" xmlns:rdf="http://www.w3.org/1999/02/22-rdf-syntax-ns#">
    <metadata>
        <rdf:RDF>
            <cc:Work rdf:about="">
                <dc:format>image/svg+xml</dc:format>
                <dc:type rdf:resource="http://purl.org/dc/dcmitype/StillImage"/>
                <dc:title>Artboard 1 copy 34</dc:title>
            </cc:Work>
        </rdf:RDF>
    </metadata>
    <defs>
        <style>.cls-1{fill:#136e42;}</style>
    </defs>
    <title>Artboard 1 copy 34</title>
    <g fill="#136e42">
        <path class="cls-1"
              d="m20.77 15.62v-9.26c-1.47-2.57-0.08-0.13-1.57-2.66h6.51v8.9h6.37c-1.6 2.92 0 0.07-1.66 3h-9.65"/>
        <path class="cls-1"
              d="m52.96 15.64v-9.18c-1.56-2.67-0.05-0.06-1.66-2.76h9.23c3.42 5.49 0.09 0.18 3.45 5.55v-5.55h4v11.94h-6.32c-4.56-7.17-0.07-0.16-4.62-7.27v7.27h-4.08"/>
        <path class="cls-1"
              d="m168.43 15.64c-3-4.8-0.05-0.12-3-4.9v4.88h-4.87v-9.28c-1.5-2.53-0.07-0.11-1.58-2.65h6.44v6.5l5.9-6.48h3.44c-4.41 4.91-0.25 0.26-4.59 5.11 4 6.61 0.14 0.24 4.09 6.82h-5.81"/>
        <path class="cls-1"
              d="m177.2 6.29c-1.28-2.14-0.08-0.15-1.56-2.58q6.84 0 13.69 0c1.57 2.54 0.07 0.12 1.62 2.65h-8.74v1.93h3.67v2.57h-3.67v2.21h8.81c-1.27 2.45-0.09 0.16-1.33 2.57h-12.49v-9.35"/>
        <path class="cls-1"
              d="m88.18 12.6h9.59a0.72 0.72 0 0 0 0 -1.37c-7.66 0.08-9.5 0-9.6-3.63a3.85 3.85 0 0 1 3.13 -3.9h9.28c0.32 0.54 1.49 2.43 1.61 2.64h-7.82a0.67 0.67 0 0 0 0 1.26h6.52c3.74 0.61 3.75 7.54-0.13 8h-10.69c-1.76-2.83-0.09-0.14-1.9-3"/>
        <path class="cls-1"
              d="m81.17 3.79c-1.79-0.12-3-0.08-11-0.08 1.57 2.57 0.08 0.13 1.61 2.65v9.28c5.68 0 7.56 0 9.35-0.11a5.7 5.7 0 0 0 5.36 -5.34c0.01-3.13-1.52-5.78-5.32-6.4zm-4.37 9.27v-6.7c2.95-0.19 4.38 0.55 4.36 3.72-0.13 2.43-1.24 3.2-4.36 2.97z"/>
        <path class="cls-1"
              d="m140.59 15.64c-7-11.31-0.19-0.32-7.36-11.93h-8.73c1.66 2.55 0.12 0.15 1.69 2.62l-4.89 9.31h3.84c1.1-2.21 0.26-0.51 1.3-2.57h7.1c-1.26 2.3-0.15 0.26-1.4 2.57zm-12.56-5.45c1.43-2.78 0.09-0.19 1.49-2.9 1.66 2.49 0.11 0.12 1.92 2.9z"/>
        <path class="cls-1"
              d="m19.5 15.65q-3.71-6-7.39-11.94h-8.73c1.64 2.61 0 0 1.62 2.61-5 9.28 0 0-5 9.31h3.84c1.24-2.33 0.18-0.3 1.38-2.57h7.08c-1.26 2.36-0.07 0.12-1.4 2.58zm-9.25-5.48h-3.44c1.52-2.76 0.1-0.2 1.65-3 1.72 2.8 1.84 2.95 1.79 3z"/>
        <path class="cls-1"
              d="m51.43 15.65-7.39-11.95-8.74-0.01c1.5 2.41 0.1 0.15 1.62 2.63-4.72 8.83-5 9.31-5 9.32h3.86c1.24-2.48 0.07-0.14 1.31-2.57h7.12c-1.22 2.3-0.18 0.31-1.37 2.6zm-12.68-5.48c1.57-2.9 0-0.08 1.61-2.95l1.84 2.94z"/>
        <path class="cls-1"
              d="m118.24 9.45v-0.09a3.07 3.07 0 0 0 1.76 -3c-0.09-1.7-1.18-2.47-2.77-2.65h-12.76l1.61 2.65v9.3h11.84c3.73-0.44 3.28-5.79 0.32-6.21zm-7.18-3.11c2.64 0.06 3.78-0.25 3.83 0.85-0.05 1.29-1.5 0.95-3.83 1-0.01-0.59 0.01-1.25-0.01-1.85zm0 6.72v-2.27c3.11 0 4.28-0.17 4.37 1.2-0.13 1.33-1.33 1.01-4.39 1.08z"/>
        <path class="cls-1" d="m5.62 2.68c-1.56-2.57 0 0-1.64-2.68h5.79l1.71 2.68h-5.86"/>
        <path class="cls-1"
              d="m142.3 15.64v-9.18c-1.54-2.68-0.05-0.07-1.6-2.76h9.21c3.42 5.49 0.09 0.18 3.46 5.55v-5.55h4v11.94h-6.41c-4.57-7.17-0.08-0.16-4.63-7.27v7.27h-4.09"/>
        <path class="cls-1"
              d="m193.17 15.64v-9.18c-1.56-2.68-0.07-0.07-1.61-2.76h9.22c3.41 5.49 0.08 0.18 3.45 5.55v-5.55h4v11.94h-6.41c-4.56-7.17-0.07-0.16-4.63-7.27v7.27h-4.07"/>
    </g>
</svg>
