<svg width="26" height="27" fill="none" xmlns="http://www.w3.org/2000/svg"><path fill-rule="evenodd" clip-rule="evenodd" d="M14.008 1.335a7.353 7.353 0 016.248 7.37 7.474 7.474 0 01-4.966 7.054l-.25.629.855 1c.506.543.576 1.362.169 1.983l-.637.96.62 1.007a1.71 1.71 0 01-.25 2.096l-1.612 1.564a1.613 1.613 0 01-1.096.452c-.4 0-.786-.156-1.073-.435l-1.894-1.806a1.612 1.612 0 01-.5-1.177v-6.79a7.45 7.45 0 01-3.556-4.506 7.643 7.643 0 013.008-8.304A6.805 6.805 0 0113 1.262a7.2 7.2 0 011.008.073zm.806 12.9l-.024.016a5.918 5.918 0 003.878-5.539 5.765 5.765 0 00-4.91-5.78 5.134 5.134 0 00-.806-.057 5.176 5.176 0 00-3 .887 6.055 6.055 0 00-2.418 6.53 5.837 5.837 0 002.805 3.524l.807.46v7.756L13 23.861l1.613-1.572a.048.048 0 000-.065l-.565-1.048-.548-.895.58-.879.645-.96-.846-1-.637-.749.363-.91.25-.63.266-.685.693-.234zm-3.023-8.941a2.016 2.016 0 110 4.031 2.016 2.016 0 010-4.031zm0 3.225a1.21 1.21 0 100-2.419 1.21 1.21 0 000 2.419z" fill="#00005E"/></svg>