<svg xmlns="http://www.w3.org/2000/svg" viewBox="0 0 32 32"><path fill="#00005E" d="M20.63 4A3.37 3.37 0 0 1 24 7.37v17.26A3.37 3.37 0 0 1 20.63 28h-9.26A3.37 3.37 0 0 1 8 24.63V7.37A3.37 3.37 0 0 1 11.37 4h9.26zM22 13H10v11.63A1.38 1.38 0 0 0 11.37 26h9.26A1.38 1.38 0 0 0 22 24.63V13zm-10 9a1 1 0 1 1 0 2 1 1 0 0 1 0-2zm4 0a1 1 0 1 1 0 2 1 1 0 0 1 0-2zm4 0a1 1 0 1 1 0 2 1 1 0 0 1 0-2zm-8-3.5a1 1 0 1 1 0 2 1 1 0 0 1 0-2zm4 0a1 1 0 1 1 0 2 1 1 0 0 1 0-2zm4 0a1 1 0 1 1 0 2 1 1 0 0 1 0-2zM12 15a1 1 0 1 1 0 2 1 1 0 0 1 0-2zm4 0a1 1 0 1 1 0 2 1 1 0 0 1 0-2zm4 0a1 1 0 1 1 0 2 1 1 0 0 1 0-2zm.63-9h-9.26A1.38 1.38 0 0 0 10 7.37V12h12V7.37A1.38 1.38 0 0 0 20.63 6z"/></svg>