<svg xmlns="http://www.w3.org/2000/svg" viewBox="0 0 32 32"><path fill="#00005E" fill-rule="evenodd" d="M4.75 21.31a.5.5 0 0 1 .5.5v3.52a1.38 1.38 0 0 0 1.37 1.37h3.52a.5.5 0 1 1 0 1H6.62a2.38 2.38 0 0 1-2.37-2.37v-3.52a.5.5 0 0 1 .5-.5zm22.5 0a.5.5 0 0 1 .45.5v3.52a2.38 2.38 0 0 1-2.37 2.37h-3.52a.5.5 0 1 1 0-1h3.57a1.38 1.38 0 0 0 1.37-1.37v-3.52a.5.5 0 0 1 .5-.5zm-4.65-4.65c.911 0 1.65.739 1.65 1.65v2.44a1 1 0 0 1-2 0v-2.09H18.6v3.59h2.83a1 1 0 0 1 0 2h-3.18c-.9 0-1.634-.72-1.65-1.62v-4.32c0-.911.739-1.65 1.65-1.65zm-9.25 0a2 2 0 0 1 2 2v3.59a2 2 0 0 1-2 2H9.73a2 2 0 0 1-2-2v-3.59a2 2 0 0 1 2-2zm0 2H9.73v3.59h3.62v-3.59zm0-10.55a2 2 0 0 1 2 2v3.62a2 2 0 0 1-2 2H9.73a2 2 0 0 1-2-2v-3.62a2 2 0 0 1 2-2zm8.9 0a2 2 0 0 1 2 2v3.62a2 2 0 0 1-2 2H18.6a2 2 0 0 1-2-2v-3.62a2 2 0 0 1 2-2zm-8.9 2H9.73v3.62h3.62v-3.62zm8.9 0H18.6v3.62h3.65v-3.62zm-10.3.9a.5.5 0 0 1 .5.5v.82a.5.5 0 0 1-.5.5h-.82a.5.5 0 0 1-.5-.5v-.82a.5.5 0 0 1 .5-.5h.82zm-1.81-6.76a.5.5 0 1 1 0 1H6.62a1.37 1.37 0 0 0-1.37 1.37v3.52a.5.5 0 1 1-1 0V6.62a2.37 2.37 0 0 1 2.37-2.37zm15.19 0a2.38 2.38 0 0 1 2.37 2.37v3.52a.5.5 0 1 1-1 0V6.62a1.37 1.37 0 0 0-1.37-1.37h-3.52a.5.5 0 1 1 0-1z"/></svg>