<svg width="30" height="35" viewBox="0 0 30 35" fill="none" xmlns="http://www.w3.org/2000/svg">
<path fill-rule="evenodd" clip-rule="evenodd" d="M15 1.00109L14.9921 1.00103C14.9053 1.00034 14.8177 1 14.7294 1C10.2158 1 7.74546 1.81147 2.07919 3.68604C1.73191 3.80093 1.37248 3.91983 1.00041 4.04257C1.01367 12.9601 1.44259 27.3704 15 33.8948C28.5574 27.3704 28.9863 12.9601 28.9996 4.04257C28.6277 3.9199 28.2687 3.80112 27.9216 3.68629C22.2553 1.81172 19.7841 1 15.2706 1C15.1823 1 15.0947 1.00034 15.0079 1.00103L15 1.00109ZM30 3.31911C30 12.1386 30 28.0972 15 35C0 28.0972 0 12.1386 0 3.31911C0.621192 3.11508 1.20793 2.92097 1.7651 2.73664C7.42825 0.863111 10.0372 0 14.7294 0C14.8203 0 14.9105 0.000353997 15 0.0010608C15.0895 0.000353997 15.1797 0 15.2706 0C19.9628 0 22.5721 0.863221 28.2352 2.73675C28.7921 2.92098 29.3792 3.1152 30 3.31911Z" fill="#8A96A3"/>
<path fill-rule="evenodd" clip-rule="evenodd" d="M15 14.9C17.2186 14.9 19 13.1221 19 10.95C19 8.77793 17.2186 7 15 7C12.7814 7 11 8.77793 11 10.95C11 13.1221 12.7814 14.9 15 14.9ZM15 15.9C17.7614 15.9 20 13.6838 20 10.95C20 8.21619 17.7614 6 15 6C12.2386 6 10 8.21619 10 10.95C10 13.6838 12.2386 15.9 15 15.9Z" fill="#8A96A3"/>
<path fill-rule="evenodd" clip-rule="evenodd" d="M14.9399 14.9C15.2161 14.9 15.4399 15.1239 15.4399 15.4L15.4399 27.5C15.4399 27.7761 15.2161 28 14.9399 28C14.6638 28 14.4399 27.7761 14.4399 27.5L14.4399 15.4C14.4399 15.1239 14.6638 14.9 14.9399 14.9Z" fill="#8A96A3"/>
<path fill-rule="evenodd" clip-rule="evenodd" d="M14.4444 27.5C14.4444 27.2239 14.6683 27 14.9444 27H17.8333C18.1095 27 18.3333 27.2239 18.3333 27.5C18.3333 27.7761 18.1095 28 17.8333 28H14.9444C14.6683 28 14.4444 27.7761 14.4444 27.5Z" fill="#8A96A3"/>
<path fill-rule="evenodd" clip-rule="evenodd" d="M14.4444 24.2C14.4444 23.9239 14.6683 23.7 14.9444 23.7H17.8333C18.1095 23.7 18.3333 23.9239 18.3333 24.2C18.3333 24.4761 18.1095 24.7 17.8333 24.7H14.9444C14.6683 24.7 14.4444 24.4761 14.4444 24.2Z" fill="#8A96A3"/>
</svg>
