<?xml version="1.0" encoding="utf-8"?>
<!-- Generator: Adobe Illustrator 24.3.0, SVG Export Plug-In . SVG Version: 6.00 Build 0)  -->
<svg version="1.1" id="Layer_1" xmlns="http://www.w3.org/2000/svg" xmlns:xlink="http://www.w3.org/1999/xlink" x="0px" y="0px"
	 viewBox="0 0 350 210" style="enable-background:new 0 0 350 210;" xml:space="preserve">
<style type="text/css">
	.st0{fill:#EEF6EE;}
	.st1{fill:#00AA46;stroke:#EEF6EE;stroke-width:1.25;}
	.st2{fill:#00AA46;}
	.st3{fill:#00AA46;stroke:#EEF6EE;stroke-width:1.5;}
	.st4{fill-rule:evenodd;clip-rule:evenodd;fill:#00AA46;}
</style>
<rect class="st0" width="350" height="210"/>
<path class="st1" d="M103.8,131l0.2-0.8h-0.8H59.3c-4.8,0-8.7-3.9-8.7-8.7V31.3c0-4.8,3.9-8.7,8.7-8.7h123.4c4.8,0,8.7,3.9,8.7,8.7
	v90.2c0,4.8-3.9,8.7-8.7,8.7h-43.9H138l0.2,0.8l2.9,12.1l0.1,0.5h0.5h8c6,0,10.8,4.8,10.8,10.8c0,0.7-0.6,1.3-1.3,1.3H82.7
	c-0.7,0-1.3-0.6-1.3-1.3c0-6,4.8-10.8,10.8-10.8h8h0.5l0.1-0.5L103.8,131z M157.2,153.1h0.8l-0.2-0.8c-0.9-3.6-4.2-6.2-8-6.2H92.3
	c-3.8,0-7.1,2.6-8,6.2l-0.2,0.8h0.8H157.2z M137.8,143.6h0.8l-0.2-0.8l-2.9-12.1l-0.1-0.5h-0.5h-27.8h-0.5l-0.1,0.5l-2.9,12.1
	l-0.2,0.8h0.8H137.8z M127.9,116L127.9,116c0,3.8-3.1,6.9-6.9,6.9s-6.9-3.1-6.9-6.9s3.1-6.9,6.9-6.9S127.9,112.2,127.9,116z
	 M182.7,127.7c3.4,0,6.2-2.8,6.2-6.2V31.3c0-3.4-2.8-6.2-6.2-6.2H59.3c-3.4,0-6.2,2.8-6.2,6.2v90.2c0,3.4,2.8,6.2,6.2,6.2H182.7z
	 M61.4,102.7h119.2c0.7,0,1.3,0.6,1.3,1.3c0,0.7-0.6,1.3-1.3,1.3H61.4c-0.7,0-1.3-0.6-1.3-1.3C60.2,103.3,60.7,102.7,61.4,102.7z
	 M116.7,116c0,2.4,1.9,4.3,4.3,4.3s4.3-1.9,4.3-4.3s-1.9-4.4-4.3-4.4S116.7,113.6,116.7,116z"/>
<path class="st2" d="M152.4,87l5-1.6l-0.4-1.3l-5,1.6L152.4,87z M167.3,82.1l-5,1.6l-0.4-1.3l5-1.6L167.3,82.1z M172.3,80.5l5-1.6
	l-0.4-1.3l-5,1.6L172.3,80.5z M187.2,75.5l-5,1.6l-0.4-1.3l5-1.6L187.2,75.5z M192.2,73.9l5-1.6l-0.4-1.3l-5,1.6L192.2,73.9z
	 M207.1,69l-5,1.6l-0.4-1.3l5-1.6L207.1,69z M206.9,56.3l-5-1.3l-0.4,1.4l5,1.3L206.9,56.3z M196.9,53.6l-5-1.3l-0.4,1.4l5,1.3
	L196.9,53.6z M186.8,50.9l-5-1.3l-0.4,1.4l5,1.3L186.8,50.9z M171.7,46.9l5,1.3l-0.4,1.4l-5-1.3L171.7,46.9z M166.7,45.6l-5-1.3
	l-0.4,1.4l5,1.3L166.7,45.6z M151.6,41.6l5,1.3l-0.4,1.4l-5-1.3L151.6,41.6z"/>
<path class="st3" d="M296.3,177.6L296.3,177.6v-0.8V47.6c0-3.9-3.2-7.1-7.1-7.1h-68.1c-3.9,0-7.1,3.2-7.1,7.1v129.2
	c0,3.9,3.2,7.1,7.1,7.1h68.1C293,183.9,296,181.1,296.3,177.6z M221.2,37.7h68.1c5.5,0,9.9,4.5,9.9,9.9v129.2c0,5.5-4.5,9.9-9.9,9.9
	h-68.1c-5.5,0-9.9-4.5-9.9-9.9V47.6C211.3,42.1,215.8,37.7,221.2,37.7z M247.4,170.4c0-4.3,3.5-7.9,7.9-7.9c4.3,0,7.9,3.5,7.9,7.9
	c0,4.3-3.5,7.9-7.9,7.9C250.9,178.3,247.4,174.8,247.4,170.4z M250.3,170.4c0,2.8,2.2,5,5,5s5-2.2,5-5s-2.3-5-5-5
	C252.5,165.4,250.3,167.7,250.3,170.4z"/>
<path class="st4" d="M221.8,156.6c0-0.4,0.3-0.6,0.6-0.6h65.8c0.4,0,0.6,0.3,0.6,0.6c0,0.4-0.3,0.7-0.6,0.7h-65.8
	C222,157.3,221.8,157,221.8,156.6z"/>
<path class="st2" d="M255.7,53.7c0-1.1-0.2-2-0.6-2.5c-0.4-0.6-0.9-0.8-1.7-0.8c-0.7,0-1.3,0.3-1.7,0.8c-0.4,0.6-0.6,1.4-0.6,2.5
	v1.9c0,1.1,0.2,1.9,0.6,2.5c0.4,0.6,0.9,0.9,1.7,0.9s1.3-0.3,1.7-0.8s0.6-1.3,0.6-2.4V53.7z M260.6,58.9V55h1.9
	c1.1,0,1.6,0.6,1.6,1.9c0,0.6-0.1,1.1-0.4,1.4c-0.3,0.3-0.7,0.5-1.2,0.5L260.6,58.9L260.6,58.9z M262.3,53.9h-1.7v-3.4h1.7
	c0.5,0,0.9,0.1,1.2,0.4c0.3,0.3,0.4,0.7,0.4,1.3c0,0.5-0.1,0.9-0.4,1.2S262.8,53.9,262.3,53.9z"/>
<path class="st4" d="M212,49c0-5.5,4.5-10,10-10h66c5.5,0,10,4.5,10,10v18c0.3,0.1,0,0.3,0,0.6c0,0.4,0.2,0.7-0.1,0.7H213
	c-0.2,0-0.4-0.1-0.5-0.3l-0.5,0V49z M231.3,57.3c0-0.5-0.1-0.9-0.4-1.2c-0.3-0.3-0.8-0.6-1.6-0.8c-0.8-0.3-1.3-0.5-1.7-0.8
	s-0.7-0.6-0.9-1s-0.3-0.8-0.3-1.3c0-0.8,0.3-1.5,0.8-2.1c0.6-0.5,1.3-0.8,2.2-0.8c0.6,0,1.2,0.1,1.7,0.4c0.5,0.3,0.9,0.7,1.1,1.2
	c0.3,0.5,0.4,1,0.4,1.6h-1.3c0-0.7-0.2-1.2-0.5-1.5c-0.3-0.4-0.8-0.5-1.4-0.5c-0.5,0-1,0.2-1.3,0.5s-0.4,0.7-0.4,1.3
	c0,0.4,0.2,0.8,0.5,1.1s0.8,0.6,1.5,0.8c1,0.3,1.8,0.8,2.2,1.3c0.5,0.5,0.7,1.2,0.7,2c0,0.9-0.3,1.6-0.8,2.1
	c-0.6,0.5-1.3,0.8-2.3,0.8c-0.6,0-1.2-0.1-1.7-0.4c-0.5-0.3-0.9-0.7-1.2-1.1c-0.3-0.5-0.4-1.1-0.4-1.7h1.3c0,0.7,0.2,1.2,0.5,1.5
	c0.4,0.4,0.9,0.5,1.5,0.5s1-0.2,1.3-0.5C231.2,58.2,231.3,57.8,231.3,57.3z M236.9,56h-3v-1.1h3V56z M243.1,58l-2.8-8.7h-1.7V60h1.3
	v-4.2l-0.1-4.1l2.8,8.3h1l2.8-8.3l-0.1,4.2V60h1.3V49.3h-1.7L243.1,58z M257,55.6c0,1.5-0.3,2.6-0.9,3.4c-0.6,0.8-1.5,1.2-2.6,1.2
	s-2-0.4-2.6-1.1c-0.6-0.8-1-1.8-1-3.2v-2c0-1.4,0.3-2.5,0.9-3.3c0.6-0.8,1.5-1.2,2.6-1.2s2,0.4,2.6,1.2s1,1.9,1,3.3V55.6z
	 M259.3,49.3V60h3.1c1,0,1.7-0.3,2.2-0.8s0.8-1.3,0.8-2.3c0-0.6-0.1-1.2-0.4-1.6c-0.3-0.5-0.7-0.8-1.2-0.9c0.4-0.2,0.8-0.5,1-0.9
	s0.4-0.8,0.4-1.3c0-0.9-0.2-1.7-0.7-2.1c-0.5-0.5-1.2-0.7-2.2-0.7h-3L259.3,49.3L259.3,49.3z M269.1,60h-1.3V49.3h1.3V60z M271.7,60
	h1.3V49.3h-1.3V60z M276.9,58.9h4.2V60h-5.5V49.3h1.3V58.9z M283,60h1.3V49.3H283V60z M96.5,43.6c-0.3,0.8-0.5,1.7-0.5,2.7v2.3h1.4
	v-2.3c0-0.8,0.2-1.5,0.4-2.1L96.5,43.6z M96,80.9h1.4v2.3c0,0.8,0.2,1.5,0.4,2.1l-1.3,0.5C96.2,85,96,84.1,96,83.1V80.9z
	 M137.7,90.3v-1.4h2.3c0.8,0,1.5-0.2,2.1-0.4l0.5,1.3c-0.8,0.3-1.7,0.5-2.7,0.5H137.7z M147,48.6h-1.4v-2.3c0-0.8-0.2-1.5-0.4-2.1
	l1.3-0.5c0.3,0.8,0.5,1.7,0.5,2.7L147,48.6L147,48.6z M105.3,39.3v1.4H103c-0.8,0-1.5,0.2-2.1,0.4l-0.5-1.3c0.8-0.3,1.7-0.5,2.7-0.5
	C103.1,39.3,105.3,39.3,105.3,39.3z M109.9,39.3v1.4h4.6v-1.4H109.9z M119.2,39.3v1.4h4.6v-1.4H119.2z M128.4,39.3v1.4h4.6v-1.4
	H128.4z M137.7,39.3v1.4h2.3c0.8,0,1.5,0.2,2.1,0.4l0.5-1.3c-0.8-0.3-1.7-0.5-2.7-0.5C139.9,39.3,137.7,39.3,137.7,39.3z M147,53.2
	h-1.4v4.6h1.4V53.2z M147,62.4h-1.4V67h1.4V62.4z M147,71.7h-1.4v4.6h1.4V71.7z M147,80.9h-1.4v2.3c0,0.8-0.2,1.5-0.4,2.1l1.3,0.5
	c0.3-0.8,0.5-1.7,0.5-2.7L147,80.9L147,80.9z M133.1,90.3v-1.4h-4.6v1.4H133.1z M123.8,90.3v-1.4h-4.6v1.4H123.8z M114.6,90.3v-1.4
	H110v1.4H114.6z M105.3,90.3v-1.4H103c-0.8,0-1.5-0.2-2.1-0.4l-0.5,1.3c0.8,0.3,1.7,0.5,2.7,0.5H105.3z M96,76.3h1.4v-4.6H96V76.3z
	 M96,67.1h1.4v-4.6H96V67.1z M96,57.8h1.4v-4.6H96V57.8z M123.5,73.5v-6.9h7.9V68h-6.6v5.6L123.5,73.5L123.5,73.5z M135.4,81.9h2.6
	v-2.8h-2.6V81.9z M135.4,76.3h2.6v-2.8h-2.6V76.3z M132.7,76.3h2.6v2.8h-2.6v2.8h-2.6v-2.8h2.6V76.3z M124.8,80.5h2.6v1.4h-4v-5.6
	h1.3L124.8,80.5L124.8,80.5z M136.7,66.6h1.3v4.2h-3.9v-1.4h2.6L136.7,66.6L136.7,66.6z M131.4,72.2h-2.6v5.6h-1.3v-6.9h4
	L131.4,72.2L131.4,72.2z M128.8,56.8h3.9v-4.2h-3.9V56.8z M127.5,58.2h6.6v-6.9h-6.6C127.5,51.3,127.5,58.2,127.5,58.2z M110.3,76.3
	h3.9v-4.2h-3.9V76.3z M109,77.7h6.6v-6.9H109V77.7z M110.3,56.8h3.9v-4.2h-3.9V56.8z M109,58.2h6.6v-6.9H109V58.2z M124.8,61h11.9
	V48.5h-11.9C124.8,48.5,124.8,61,124.8,61z M123.5,62.4H138V47.1h-14.5V62.4z M106.4,80.5h11.9V68h-11.9V80.5z M105.1,81.9h14.5
	V66.6h-14.5V81.9z M106.4,61h11.9V48.5h-11.9V61z M105.1,62.4h14.5V47.1h-14.5V62.4z M256,129.7c11.4,0,20.7-9.3,20.7-20.7
	s-9.3-20.7-20.7-20.7s-20.7,9.3-20.7,20.7S244.6,129.7,256,129.7z M256,131c12.1,0,22-9.8,22-22s-9.9-22-22-22s-22,9.8-22,22
	S243.9,131,256,131z M269.3,100.3l1,0.9l-18,17.3l-8.5-8.2l1-0.9l7.5,7.2L269.3,100.3z"/>
</svg>
