<svg width="75" height="27" viewBox="0 0 75 27" fill="none" xmlns="http://www.w3.org/2000/svg">
<g clip-path="url(#clip0)">
<path d="M25.9651 5.56743C27.1446 5.56743 28.0503 5.92643 28.6927 6.64443C29.3299 7.36243 29.6511 8.33233 29.6511 9.56473V13.6477C29.6511 14.9177 29.3352 15.9357 28.7033 16.6966C28.0714 17.4575 27.1499 17.8379 25.9441 17.8379H24.2011V21.1012H21.126V5.56743H25.9651ZM26.3127 14.5747C26.5022 14.3389 26.597 13.996 26.597 13.5513V9.80043C26.597 8.91103 26.2389 8.47163 25.5281 8.47163H24.1959V14.9284H25.5017C25.8545 14.9337 26.1231 14.8158 26.3127 14.5747Z" fill="#00AA46"/>
<path d="M36.8336 5.56743L39.9298 21.1012H36.8336L36.286 17.9505H33.1002L32.5526 21.1012H29.4985L32.6369 5.56743H36.8336ZM34.7168 8.76093H34.6747L33.5636 15.1749H35.8121L34.7168 8.76093Z" fill="#00AA46"/>
<path d="M43.942 5.56743L46.8855 14.7087H46.9065L46.8855 5.56743H49.8079V21.1012H46.8855L43.7471 11.6491H43.7261L43.7471 21.1012H40.8247V5.56743H43.942Z" fill="#00AA46"/>
<path d="M54.3787 5.56743V14.6015L54.5946 13.9371L57.3854 5.57273H60.5027L57.775 13.562L60.6343 21.1065H57.517L55.6003 15.9572L54.3787 18.84V21.1012H51.393V5.56743H54.3787Z" fill="#00AA46"/>
<path d="M64.5203 5.56743V14.6015L64.7362 13.9371L67.527 5.57273H70.6443L67.9166 13.562L70.7759 21.1065H67.6586L65.7419 15.9572L64.5203 18.84V21.1012H61.5346V5.56743H64.5203Z" fill="#00AA46"/>
<path d="M74.8992 5.56743V21.1012H71.6924V5.56743H74.8992Z" fill="#00AA46"/>
<path d="M7.54051 4.32953C9.31501 2.52378 11.6003 1.7361 14.033 1.7361H15.8286V0H14.0225C11.1369 0 8.42511 0.96986 6.33461 3.10248C4.22831 5.24583 3.28579 7.98393 3.28579 10.9792V15.4695C3.28579 15.6356 3.27526 15.8446 3.24893 15.9839C3.18574 16.3215 3.0541 16.5948 2.83294 16.8145C2.63284 17.0127 2.39589 17.1306 2.21159 17.1949C2.05362 17.2538 1.85352 17.2967 1.63763 17.3289C1.15845 17.4039 0 17.4253 0 17.4253V22.8104H1.56918C3.57011 22.8104 5.40261 22.1942 6.77691 20.7957C8.15131 19.4025 8.75161 17.6128 8.75161 15.6892V10.9739C8.75161 9.52173 9.20441 8.16073 10.2523 7.09443C11.3054 6.02273 12.6429 5.56193 14.0488 5.56193H14.2963V7.63033C13.8172 7.66243 13.4801 7.71063 13.0431 7.84993C12.585 8.00003 12.1479 8.24113 11.7635 8.63233C11.1211 9.28063 10.8578 10.1112 10.8578 10.9739V15.6892C10.8578 18.2076 10.068 20.5224 8.28821 22.3335C6.51361 24.1393 4.22831 24.927 1.7956 24.927H0V26.6631H1.80613C4.69171 26.6631 7.40351 25.6932 9.49401 23.5606C11.6003 21.4173 12.5429 18.6792 12.5429 15.6838V11.1935C12.5429 11.0274 12.5534 10.8185 12.5797 10.6792C12.6429 10.3416 12.7745 10.0683 12.9957 9.84863C13.1958 9.65033 13.4328 9.53253 13.6171 9.46823C13.775 9.40923 13.9751 9.36643 14.191 9.33423C14.6702 9.25923 15.8286 9.23783 15.8286 9.23783V3.85263H14.2595C12.2585 3.85263 10.426 4.46883 9.05171 5.86743C7.67741 7.26053 7.07711 9.05023 7.07711 10.9739V15.6892C7.07711 17.1413 6.62421 18.5023 5.57641 19.5686C4.52321 20.6403 3.18574 21.1011 1.7798 21.1011H1.53232V18.9899C2.01149 18.9578 2.37483 18.8935 2.78555 18.7702C3.24893 18.6256 3.68071 18.422 4.06511 18.0362C4.70751 17.3878 4.97081 16.5573 4.97081 15.6946V10.9792C4.97081 8.46083 5.76071 6.14063 7.54051 4.32953Z" fill="#00AA46"/>
</g>
<defs>
<clipPath id="clip0">
<rect width="75" height="27" fill="white"/>
</clipPath>
</defs>
</svg>
